<svg width="31" height="30" viewBox="0 0 31 30" fill="none" xmlns="http://www.w3.org/2000/svg">
<g clip-path="url(#clip0_64_180)">
<path fill-rule="evenodd" clip-rule="evenodd" d="M6.96527 15C6.96527 14.0257 7.12699 13.0915 7.41597 12.2154L2.3605 8.355C1.37519 10.3554 0.82019 12.6096 0.82019 15C0.82019 17.3885 1.37472 19.6411 2.35839 21.6403L7.41105 17.7724C7.12488 16.9003 6.96527 15.9696 6.96527 15Z" fill="#FBBC05"/>
<path fill-rule="evenodd" clip-rule="evenodd" d="M15.8415 6.13641C17.9581 6.13641 19.8699 6.88641 21.372 8.11359L25.7417 3.75C23.079 1.4318 19.6651 0 15.8415 0C9.90524 0 4.80336 3.39469 2.36047 8.355L7.41571 12.2154C8.58055 8.67961 11.9009 6.13641 15.8415 6.13641Z" fill="#EA4335"/>
<path fill-rule="evenodd" clip-rule="evenodd" d="M15.8415 23.8636C11.9012 23.8636 8.58079 21.3204 7.41594 17.7846L2.36047 21.6443C4.80336 26.6053 9.90524 30 15.8415 30C19.5052 30 23.0033 28.699 25.6285 26.2615L20.8299 22.5518C19.4759 23.4047 17.7709 23.8636 15.8415 23.8636Z" fill="#34A853"/>
<path fill-rule="evenodd" clip-rule="evenodd" d="M30.1798 15C30.1798 14.1136 30.0431 13.159 29.8383 12.2728H15.8414V18.0682H23.8983C23.4954 20.0442 22.399 21.5632 20.8299 22.5518L25.6285 26.2615C28.3861 23.7021 30.1798 19.8893 30.1798 15Z" fill="#4285F4"/>
</g>
<defs>
<clipPath id="clip0_64_180">
<rect width="30" height="30" fill="white" transform="translate(0.5)"/>
</clipPath>
</defs>
</svg>
