<svg width="31" height="30" viewBox="0 0 31 30" fill="none" xmlns="http://www.w3.org/2000/svg">
<g clip-path="url(#clip0_63_176)">
<path d="M25.25 0H5.75C2.8505 0 0.5 2.3505 0.5 5.25V24.75C0.5 27.6495 2.8505 30 5.75 30H25.25C28.1495 30 30.5 27.6495 30.5 24.75V5.25C30.5 2.3505 28.1495 0 25.25 0Z" fill="#4489C8"/>
<path d="M5.00932 9.26719H8.60932C8.68458 9.26707 8.75809 9.28988 8.82006 9.33259C8.88203 9.3753 8.92952 9.43587 8.95619 9.50625C9.35463 10.5328 11.0093 14.55 12.5234 14.8781C13.6484 14.8781 13.2499 9.53438 11.8203 9.53438C11.4453 9.53438 12.4859 8.86875 12.5562 8.84063C13.8848 8.47645 15.2869 8.47645 16.6156 8.84063C17.3328 9.14063 17.4546 9.97969 17.4734 10.6922C17.4921 11.4047 16.6765 14.4422 17.7499 14.7703C19.1562 15.2016 20.9656 10.7906 21.3874 9.70781C21.4149 9.63831 21.4627 9.57874 21.5246 9.53691C21.5865 9.49508 21.6596 9.47295 21.7343 9.47344H25.7421C25.8041 9.47324 25.8651 9.48839 25.9197 9.51753C25.9744 9.54667 26.021 9.58889 26.0553 9.64042C26.0897 9.69196 26.1107 9.7512 26.1166 9.81285C26.1225 9.8745 26.113 9.93666 26.089 9.99375C25.2635 11.8771 24.2737 13.684 23.1312 15.3938C23.0341 15.5348 22.9885 15.7051 23.0022 15.8758C23.0158 16.0466 23.0879 16.2074 23.2062 16.3313C24.4062 17.6156 27.6874 21.2531 25.8124 21.2531H21.7671C21.6626 21.2534 21.5592 21.2314 21.4638 21.1885C21.3684 21.1457 21.2833 21.083 21.214 21.0047C20.5859 20.3109 18.7578 18.3797 17.9328 18.5344C17.2484 18.6609 17.1828 19.8234 17.2156 20.5828C17.2259 20.7787 17.1591 20.9709 17.0294 21.1181C16.8997 21.2653 16.7175 21.3559 16.5218 21.3703C15.8046 21.4125 14.8249 21.4313 14.7359 21.4266C11.8765 21.2438 10.1843 19.3359 8.56713 17.2078C6.87314 14.9516 5.55169 12.4385 4.65307 9.76406C4.6347 9.70747 4.62989 9.64736 4.63902 9.58857C4.64815 9.52978 4.67097 9.47396 4.70564 9.4256C4.74031 9.37725 4.78585 9.33772 4.8386 9.31021C4.89135 9.28269 4.94983 9.26795 5.00932 9.26719V9.26719Z" fill="white"/>
</g>
<defs>
<clipPath id="clip0_63_176">
<rect width="30" height="30" fill="white" transform="translate(0.5)"/>
</clipPath>
</defs>
</svg>
